# xmcd CD database file
#
# Track frame offsets:
#	150
#	13801
#	29688
#	47574
#	64450
#	77655
#	91243
#	106573
#	115557
#	130929
#
# Disc length: 1981 seconds
#
# Revision: 0
# Processed by: cddbd v1.5.2PL0 Copyright (c) Steve Scherf et al.
# Submitted via: CDex 1.70beta2
#
DISCID=7807bb0a
DTITLE=Christmas swing band - Noel en jazz
DYEAR=2011
DGENRE=Jazz
TTITLE0=The first Noel
TTITLE1=We wish you a merry christmas
TTITLE2=What child is this?
TTITLE3=O Christmas tree
TTITLE4=O holy night
TTITLE5=The holy and the ivy
TTITLE6=God rest you merry gentelmen
TTITLE7=Up on the housetop
TTITLE8=This little light of mine
TTITLE9=Auld lang syne
EXTD=YEAR: 2011
EXTT0=
EXTT1=
EXTT2=
EXTT3=
EXTT4=
EXTT5=
EXTT6=
EXTT7=
EXTT8=
EXTT9=
PLAYORDER=
